<svg xmlns="http://www.w3.org/2000/svg" height="800" width="1200" id="svg8" version="1.1" viewBox="-13.11087 -7.93565 113.62754 47.6139"><g transform="translate(13.9562 -336.8049)" id="layer1"><g transform="translate(.2646 -.2646)" id="g63"><path class="st2" d="M10.4259 352.1934s.0264 0 0 0c.0264 0 .0264 0 0 0m-23.9448-.1587c-.0265.0265 0 .0265.0264.0265.0265 0 .053 0 .053.0265.5027.1323 1.0318.291 1.508.4233.0265 0 .0265.0265.053 0-.5556-.1323-1.0848-.3175-1.6404-.4762m31.6177 4.2333c-1.4552-.2381-5.133-.2381-7.3819-.2117-.1323-.0529-.2381-.1058-.3704-.1852-.9525-.4498-1.9315-.8996-2.884-1.3493.1588-.1588.3175-.291.5028-.4498 1.4287.5291 3.6512 1.2964 5.1064 1.7991.1058.0265.3175-.1587.3969-.4498.0794-.291.053-.5556-.053-.6085 0 0-3.2808-1.1377-4.5243-1.5875.6615-.582 1.3494-1.1377 2.0108-1.7198.6615-.582 1.3494-1.1377 2.0109-1.6933.344-.291.6879-.5557 1.0318-.8467.688-.5556 1.3759-1.1113 2.1167-1.614.1852-.1323.3704-.2645.5556-.3704.1323-.0794.2382-.1587.3704-.2116.0794-.053.1588-.0794.2382-.1059 0-.0265-.0265 0 0-.0265 0 0 .0264-.0265.0529-.0265 0-.0529.0264-.1323 0-.1852-.053 0-.0794.0265-.1323.0265v-.0265c-.1852.1058-.3704.1852-.5556.291-.0265.0265-.0794.0265-.1059.053 0 0-.0264 0-.0264.0265l-.7938.3968c-.2381.1323-.5027.2382-.7408.3705-.2381.1322-.4763.238-.7408.3704-.979.5291-1.9315 1.0318-2.884 1.561.1058-.0794.2117-.1852.3175-.2381.1323-.0794.2381-.1323.3704-.2117.7409-.3969 1.4552-.8202 2.196-1.217.5028-.2646.979-.5292 1.4817-.7938.4234-.2117.8732-.4498 1.323-.6615.0529-.0265.1322-.0794.2116-.0529 0 0 .0265 0 .0265.0265.0264.0265.0529.0265.0793.053.0265.0528.053.1587.0265.238 0 .0265-.0265.0265-.053.053l-.0264.0264c-.0264.0265-.0529.0265-.0529.0265-.1323.0794-.2381.1323-.3704.2117-.2381.1588-.4763.3175-.688.4763l-.238.1587a24.8293 24.8293 0 00-1.323 1.0054l-.8731.7144c-.053.0529-.1323.1058-.1852.1588-.635.5291-1.2435 1.0847-1.8785 1.6139-.4234.3704-.8203.7144-1.2436 1.0848 1.0054-.8467 2.0108-1.6669 3.0163-2.487-.8202.6878-1.6405 1.3757-2.4342 2.0901l.3175-.2381c-.3175.3175-.6615.6085-.979.926-.2645.2382-.5027.4498-.7408.688a.8051.8051 0 00-.2117.2116l-.0264.0265c.1058-.0794.1852-.1587.2646-.2116.4498-.3705.873-.7673 1.3229-1.1378.344-.291.7144-.6085 1.0583-.8995.1852-.1588.3704-.291.5292-.4498l.0264-.0265.053-.053c.344-.291.6614-.5556 1.0054-.8466.5291-.4498 1.0848-.8731 1.6404-1.2965.291-.2116.5556-.4233.8467-.635.1058-.0794.1852-.1322.291-.2116.291-.2117.582-.3969.8996-.5556.1058-.053.2116-.1059.291-.2117.053-.1058.1059-.2381.0794-.3969-.0265-.1323-.0794-.2381-.1852-.291.053.0529.1058.1058.1323.1852.0264.0794.053.1587.053.2646 0 .0265-.0266.0794-.0266.1058-.0264.0794-.0793.1323-.1322.1852-.0265.0265-.053.053-.1059.0794-.0793.053-.1323.0794-.2116.1058-.2117.1059-.4234.2382-.6086.344-.1323.0794-.2646.1852-.3969.2381.2646-.2381.5821-.4498.926-.635.0795-.0529.1588-.1058.2382-.1323.0794-.0529.1588-.1058.1852-.2116.053-.1059.0265-.2382 0-.3175-.053-.0794-.1058-.1588-.2117-.1852.1323-.053.2646-.1323.397-.2117.0793-.0529.1851-.1058.2645-.1852l.0794-.0794c.0529-.053.0794-.1058.1058-.1852.0265-.053.053-.1323.053-.2117s-.0265-.1587-.053-.2381-.053-.1323-.1058-.1852c-.0794-.1059-.1852-.1852-.344-.2117-.0794-.0265-.1587-.0265-.2381-.0265-.7408.0794-1.323.3175-1.9315.5292.1059-.0265.2646-.1058.397-.1323-.397.1587-.8203.3175-1.2172.4762-.2381.1059-.4498.2382-.635.3705.1852-.1588.3704-.3175.5556-.5027.1588-.1588.3175-.3705.4763-.5557.0794-.0794.1323-.1852.2117-.291.0793-.1058.1323-.2117.1587-.344.0265-.0794.0265-.1852 0-.2381-.0264-.0529-.0529-.1058-.1058-.1587-.0265-.053-.0794-.0794-.1323-.1059-.053-.0265-.1058-.0794-.1852-.0794-.0265 0-.0794 0-.1059.0265-.1852.0265-.3175.1059-.4497.2117-.053.0265-.1059.0794-.1588.1058-.4233.291-.7673.6086-1.1377.926-.5556.4763-1.1113.979-1.6669 1.4553-.5291.4762-1.0583.926-1.5875 1.4023-.0264.0265-.0529.0529-.0793.0529-.7409.635-1.4817 1.2964-2.2225 1.9314-.5557.4763-1.1113.979-1.667 1.4552.397-.3968.7938-.7937 1.2172-1.1641.1058-.1059.2116-.1852.291-.291.1058-.106.1852-.2117.291-.2911.1059-.1059.2117-.1852.291-.291.106-.1059.2118-.1853.2911-.2911.7938-.7938 1.5875-1.5875 2.3813-2.3548l2.9633-2.9633c.1588-.1588.291-.291.4233-.4498.053-.053.1059-.1059.1323-.1588.0794-.1323.1323-.2646.1323-.3968v-.1323c0-.1059-.0794-.1852-.1323-.2646l-.0529-.053c-.053-.0528-.1323-.0793-.2117-.0793-.0793-.0265-.1852 0-.2645.0265-.1588.0529-.2646.1058-.397.1852 0 0-.1587.1058-.2116.1587.053-.0529.1323-.1058.1852-.1587v-.0265c.1323-.1588.1852-.3704.053-.4763-.1059-.1322-.344-.1058-.5292.0265a167.636 167.636 0 01-.1059.1059c-.2645.291-.5027.5556-.7672.8202-.0794.0794-.1323.1587-.2382.2381l-.7143.635c-.1588.1323-.3175.291-.4763.4233-.1587.1323-.3175.291-.4762.4234l-.7144.635c-.0794.0794-.1588.1323-.2381.2116.2116-.1587.3968-.291.6085-.4233-.344.3175-.7144.6086-1.0848.926-.3704.3176-.7144.635-1.0848.926-.7144.6086-1.4023 1.2436-2.0902 1.8522l-.0264.0264c0-.4763-.0265-1.3758-.0265-1.4288 0-.0529-.1323-.1058-.291-.1058h-.1323c.0264-.688.0264-1.4023.0529-2.0902 0-.1588-.1852-.2646-.4234-.2646h-.1058c-.0264 0-.0264 0-.053.0265-.0264 0-.0264.0265-.0528.0265-.0265 0-.0265.0265-.053.0265-.0264 0-.0264.0265-.0529.0265l-.0264.0265s-.0265.0265-.0265.053c0 .0264 0 .0264-.0264.0528v3.7571c-.053-.1058-.1059-.1852-.1323-.291-.0265-.0265-.053-.0794-.053-.1059-.0264-.1852-.0264-.3968-.0264-.582 0-.1853-.0265-.397-.0265-.5821-.0264-.397-.0529-.7673-.0529-1.1642-.0529-1.0583-.1323-2.1167-.1587-3.2015v-.1322c0-.053 0-.1059.0264-.1323.1059-1.0848.344-3.228.344-3.2809 0-.4233-.2117-.7673-.5027-.7937-.291 0-.5292.3175-.5556.7408 0 .0794.0793 1.5875.1323 2.3813 0 .0529.0264.1323 0 .1852 0 .1058-.0265.238-.053.344-.0793-.5822-.1852-1.1642-.291-1.7463-.1058-.5556-.2117-1.1113-.344-1.6669-.0529-.291-.1587-.582-.3175-.8202.0794-.3969-.1587-.6615-.4498-.7144-.2645-.0529-.4762.0265-.635.1588-.1852.1323-.344.4233-.3704.635-.0529.291 0 .582.053.873.1058.688.1587 1.376.238 2.0638.053.397.1059.7673.1324 1.1642-.1059-.1852-.1852-.3704-.2646-.582a279.3293 279.3293 0 00-1.8786-4.0747c-.0264 0 0 0 0 0 .2646.6086.5557 1.2171.8202 1.8521-.3175-.582-.582-1.217-.873-1.8256-.1853.0794-.344.1588-.5292.2381.0264 0 0 0 0 0 .7672 1.7727 1.5345 3.519 2.3018 5.2917l.7144 1.6669c.0265.0264.0265.0794.053.1058-.6086-1.2965-1.2172-2.6194-1.8257-3.9158.4498.979.8731 1.9579 1.2965 2.9368 0 .0265.0264.053.0264.1059-.5556-1.1906-1.1377-2.3548-1.6933-3.5454 0-.0265 0-.0265-.0265-.0265-.0529.0265-.0794.0265-.1058.0529-.3704-.8732-1.0583-2.54-1.0848-2.593-.1852-.3704-.5292-.582-.8202-.4762-.3175.0529-.3704.4498-.3175.7408.0529.2117.1323.4234.2117.635.0793.2117.1587.4498.2645.6615.0265.0529.053.1058.053.1852.0264.0529.0264.1323.0793.1852-.1587-.2117-.3704-.3175-.5291-.2646-.2117.0794-.2646.4234-.1852.7673-.1588-.2117-.344-.3175-.5028-.2381-.2116.0794-.2645.4498-.1058.8467 0 0 0 .0265.0265.0265.0264.0265.0264.0529.0529.1058l.4762 1.1906c-.1323-.2117-.238-.4233-.3704-.635-.0264-.0529-.0529-.0794-.0794-.1058-.0793-.0794-.1852-.1059-.291-.053-.0794.053-.1587.1324-.1587.2382 0 .0529.0264.1058.0264.1588.0265.0529.053.1058.053.1322.238.5821.4762 1.1113.7143 1.6934.4763 1.1377.9525 2.249 1.4552 3.3866.3175.688.6086 1.4023.926 2.0903.0265.0529.053.0794.053.1322-.3704-.7672-.7144-1.5345-1.0848-2.3018.4498 1.0318.8996 2.0902 1.3494 3.0956.0264.0265.0264.0529.0264.1058-.0794-.0265-.1323-.0265-.1852-.0529-.053-.0265-.1323-.0265-.1852-.0529-.053-.0265-1.3494-.6614-1.4552-.7143-.344-.1853-4.4715-1.9315-4.6302-2.0109-.0265 0-.053-.0265-.053-.0265-.5026-.2116-.635.2646-.582.3969-.1588-.053-.344-.1323-.5292-.1852-.1852-.053-.5292-.1852-.5292-.1852-.0793-.0265-.2116.0794-.2645.2381-.0265.0794-.053.1852-.0265.2381-.2117-.0529-.4233-.1058-.6085-.1852-.1059-.0265-.2117-.0794-.344-.1058-.1058-.0265-.2381-.053-.3704-.0794-.1323-.0265-.2646-.053-.3969-.0265-.1323.0265-.291.0529-.3969.1587-.1058.1059-.1058.2646-.0793.4234.0264.1323.1058.2645.1852.3968.0264.0264.0529.0794.0793.1059.0265.0265.053.0529.0794.1058l.1058.1058c.053.0264.0794.0794.1323.1059.053.0265.1059.0529.1588.1058.053.0265.1058.0794.1852.1058.053.0265.1323.0794.2117.1059l.238.0794c.0795.0265.1588.0529.2647.0794.0264 0 .0529.0265.0529.0265-.1058-.0265-.1852-.0265-.291-.053-.053.2382-.1588.5557-.1588.5557s3.9423 1.6933 5.9531 2.5135c-1.1641-.3704-2.3548-.7408-3.519-1.1112-.3968-.1323-.7937-.2381-1.1641-.3704-.7673-.2381-1.614-.4498-2.5135-.5821-.2382-.0265-.4763-.053-.7144-.053-.1059 0-.2381-.0264-.344-.0528-.1058-.0265-.2381-.0265-.344-.053-.0529 0-.1058 0-.1587-.0264-.053-.0265-.1058-.0265-.1587-.053-.2382-.0793-.5027-.1587-.7409-.238-.0529 0-.0793-.0265-.1323-.0265h-.0264c-.1588-.0265-.3175.1323-.3704.344-.053.2116.0529.4233.1852.4497h.0529c.3704.053.7144.0794 1.0583.1323.0794 0 .1588.053.2381.0794.2382.0794.5028.1588.7409.2381-.053.1059-.0794.2382-.1059.344-.0264.0794-.0529.1852-.0793.2646 0 .0265 0 .0265-.0265.0529l.7938.238c1.8785.5557 3.757 1.1113 5.6091 1.667l-.1587.4762c-.5821-.1852-1.1642-.3969-1.7463-.6085-.291-.1059-.582-.2117-.8731-.291-.582-.1853-1.217-.4234-1.7992-.6086 0 0-.0529-.0264-.0264 0 .0264.0265.0794.0265.1058.0529.5027.1852 1.0054.344 1.5081.5292.2382.0794.5027.1852.7409.2645.0264 0 .0793.0265.1058.053-.2381-.053-.4763-.1323-.7144-.2117-.4762-.1323-.926-.291-1.4023-.4234-.238-.0794-.4762-.1587-.6879-.238-.2646-.0795-.5027-.1853-.7673-.2647-.1323-.0529-.3704-.1323-.6614-.2381-.291-.1852-.7144-.344-1.1113-.4762-.0264 0-.0529-.0265-.0794-.0265-.1322-.0265-.2645.0794-.3175.2645-.0529.1852 0 .344.1323.3969h.053c.0529 0 .0529.0265.1058.0265.979.2646 1.9315.5556 2.884.8202.1058.0265.2116.053.291.0794.4762.1588.979.344 1.4287.5027-.238-.0529-.4762-.1323-.7143-.1852.3175.0794.6085.1588.926.2646.1588.0529.291.1058.4233.1587.1588.053.291.1059.4234.1588.582.2117 1.1641.3969 1.7462.6085.5821.2117 1.1642.397 1.7463.6086.582.1852 1.1641.3969 1.7462.6085-1.4287 1.2965-2.884 2.593-4.1804 4.0481a10.6631 10.6631 0 00-.688.8467c-.0264.0265-.0528.0794-.0793.1058-.0529.053-.1323.1059-.1852.1588 0 0-.3175.2381-.3704.3175-.053.0794.0264.2646.1852.3704.1587.1058.344.1323.4233.053.0794-.1588.1852-.2911.2646-.4499.0265-.0265.053-.0794.0794-.1058.0264-.0265.053-.053.1058-.0794.0794-.053.1323-.1058.2117-.1588 1.8785-1.508 3.7306-2.9897 5.6092-4.5243.0264-.0265.0793-.0794.1058-.0794l.053.0265c.0528.0265.1322.0529.1851.0529-.4498.4762-.8996.9525-1.3229 1.4552-.1058.1323-.2117.2381-.344.3704-.2116.2381-.4498.4762-.6614.7408-.1059.1323-.2117.2382-.3175.3704.0264 0 .0529-.0529.0794-.0529-.7938.8467-2.4342 2.4871-2.4342 2.4871l.1323.1323c-.3704.344-.7673.7144-1.1642 1.0583l.1058.1059-.4762.3969c-.0265.0265-.0794.0529-.0794.0529-.0794.0794-.0264.291.1323.4762.1323.1588.291.2646.3969.2381-.2646.2646-.582.5557-.8467.8202l-.1323.1323c-.0793.1059-.1323.3704-.0793.5292 0 .0265.0264.1058.0793.1323-.2116.1852-.4233.344-.635.5292l-.0529.0529c-.0529.0794-.0264.2116.0794.3439.1058.1323.2646.2117.344.1588 0 .0529 0 .1323.0529.2116.0793.1059.1587.1588.238.1323h.0265c.0265 0 .0265-.0265.0265-.0265.7408-.582 1.4552-1.1641 2.1696-1.7462.2381-.1852.5027-.397.7408-.5821-.2381.3175-.4498.6614-.6879.9525l-.0794.0794c-.1058.1058-.2116.1852-.291.291-.2117.2117-.3969.3969-.6086.5821l-.5027.5027c-.0264.0265-.1058.0794-.1058.0794-.1587.1852-.1587.4498 0 .6086h.0265s.0264 0 .0264.0264c0 0 .0265 0 .0265.0265h.291s.0265 0 .0265-.0265c0 0 .0264 0 .0264-.0264 0 0 .0265 0 .0265-.0265l.0265-.0265.0264-.0265.0265-.0265v-.0529l.0264-.0265s0-.0265.0265-.0265c0 0 0-.0265.0264-.0265 0 0 0-.0265.0265-.0265l.0265-.0265.0264-.0265.0265-.0265.0264-.0265.0265-.0265.0264-.0265c0-.0265.0265-.0265.0265-.053 0-.0264.0265-.0264.0265-.0528 0-.0265.0264-.0265.0264-.053 0-.0264.0265-.0264.0265-.0528 0-.0265.0264-.0265.0264-.053 0-.0264.0265-.0264.0265-.0528 0-.0265.0265-.0265.0265-.053 0-.0264.0264-.0264.0264-.0528 0-.0265.0265-.0265.0265-.053 0-.0264.0264-.0264.0264-.0528 0-.0265.0265-.0265.0265-.053 0-.0264.0264-.0264.0264-.0528 0-.0265.0265-.0265.0265-.053 0-.0264.0265-.0264.0265-.0528 0-.0265.0264-.0265.0264-.053 0-.0264.0265-.0264.0265-.0528 0-.0265.0264-.0265.0264-.053 0-.0264.0265-.0264.0265-.0528 0-.0265.0264-.0265.0264-.053 0-.0264.0265-.0264.0265-.0528 0-.0265.0265-.0265.0265-.053 0-.0264.0264-.0264.0264-.0528 0-.0265.0265-.0265.0265-.053 0-.0264.0264-.0264.0264-.0528 0-.0265.0265-.0265.0265-.053 0-.0264.0265-.0264.0265-.0528 0-.0265.0264-.0265.0264-.053 0-.0264.0265-.0264.0265-.0528.0793-.1059.1587-.2382.2646-.3175.1058-.0794.1852-.1852.291-.291.291-.2911.582-.5557.8731-.8467.291-.291.5821-.5557.8731-.8467l.291-.291c.1853-.1853.397-.3705.5822-.5557l.291-.291c.1852-.1852.3969-.3704.5821-.5556.291-.291.582-.5557.8731-.8467l.1323-.1323c.1323-.1323.291-.291.4498-.4233l.291-.291c.053-.053.1059-.0795.1588-.1324.3175-.2646.635-.5291.9525-.7673.3704-.291.7408-.6085 1.1112-.8995-2.5929 2.6722-5.1858 5.3445-7.7522 8.0433l-.0265.0265-.0265.0265.0265-.0265c.7144-.7144 1.4552-1.4288 2.1696-2.1431l1.3494-1.3494c.2645-.2646.5291-.5556.7937-.8202.3704-.3704.7144-.7409 1.0583-1.0848.7144-.7144 1.4288-1.4552 2.1432-2.1696l1.0318-1.0319.053-.0529.0793.1588c.0265.0529.0265.1058.0265.1587l.0794.3969c.1323 1.1642.3175 2.884.344 3.0163.0528.4497.1322.926.2116 1.3758.1587 1.0583.8996 5.2387 1.0319 5.5033.0529.1323.1852.291.344.291.1587.0266.3439-.1587.3703-.3174.0265-.2117-.0529-.4234-.0529-.635v-2.0638c0-.291-.0264-.582-.0529-.8731-.053-.5821-.1323-1.1642-.2117-1.7463-.0264-.1587-.1058-1.0848-.1058-1.217.926 1.7991 2.7781 5.424 2.7781 5.424.053.0528.1852.0528.3704 0 .1588-.0795.291-.1853.2646-.2647-.7408-1.8256-1.4816-3.6777-2.2225-5.4768.5027.635.979 1.2964 1.4552 1.9579.0265.0529.053.0794.0794.1323.0265.0529.053.1058.053.1587.291.7144.6085 1.4023.926 2.0638-.3969-.688-.7409-1.4023-1.0584-2.1432.2117.5027.397 1.0055.6086 1.5082.2116.4762.4762.9525.7408 1.3758.1323.2117.2646.4233.4233.635.1059.1323.2646.291.397.3969.1322.1058.3703.2116.6085.1587.1323-.0265.238-.1058.3175-.2116.0793-.1059.1323-.2382.1058-.397 0-.1587-.053-.291-.1058-.4233.1587-.0529.291-.1322.4498-.2116.0264 0 .0529 0 .0529-.0265-.291-.6086-.6086-1.2436-.8731-1.8521-.291-.6086-.6086-1.2436-.8732-1.8521-.291-.6085-.582-1.2435-.8731-1.852-.291-.6086-.6085-1.2172-.8996-1.8257.1059.0529.2381.0794.344.1058 1.2964 2.6988 2.6194 5.371 3.9423 8.0434-1.2436-2.6723-2.4871-5.3182-3.7307-7.964 1.4023.4498 2.8046.926 4.2334 1.3758-.7144-.2645-1.4288-.5027-2.1431-.7673-.7144-.2645-1.4288-.5027-2.1432-.7408-.0793-.1587-.1587-.344-.2381-.5027.635.2117 1.27.3969 1.905.6085.0794.0265.1852.053.2646.0794.926.291 1.852.5557 2.7781.8202.1852.053.3704.1059.5556.1853.3705.1058.7144.238 1.0848.344.3704.1322.7144.238 1.0584.3703.2645.1059.5291.1852.7937.291.0794.053.1852.1059.1852.1059h.053c.1851 0 .4497-.344.582-.7937.1588-.5028.1059-.979-.0793-1.032 0 0-.1059-.0264-.1323-.0264.0529-.2117.0264-.3969-.1059-.4233 0 0-3.0162-.979-4.4714-1.4288-.2117-.0529-.4234-.1323-.635-.1852-.8202-.2646-1.667-.5292-2.4871-.7673h.2646c.1587.0529 1.3229.4233 1.6668.5292.6086.1852 1.1907.3704 1.7728.5556.5556.1852 1.6933.5556 1.7197.5556h.053c.0529-.0265.1058-.0794.1323-.1587.0264-.1059.0264-.1852 0-.2382 0 0 0-.0265-.0265-.0265H15.4l-.4762-.1587c-.5556-.1852-1.1113-.3704-1.6669-.582-.3704-.1324-.7408-.2647-1.1112-.3705-.1323-.053-.2646-.0794-.397-.1323 3.9424-.1058 7.8318-.3704 6.35-.635m-24.0505-2.0902c-.2117-.053-.4234-.1323-.635-.1852.0529 0 .1058.0265.1587.0529.1058.0265.2117.0529.344.1058.0529.0265.1058.0265.1587.053 0-.0266-.0264-.0266-.0264-.0266m9.4191-7.7787c0-.0794.0265-.1852.0265-.2646.0264-.1323.0264-.2381.0529-.3704.053.3175.0794.6614.1588.979.0264.1058.0264.2116.0264.3174-.0794-.1587-.1587-.3175-.2381-.5027 0-.0265-.0265-.0529-.0265-.0794v-.0794m-.1058.8202c0-.0529.0265-.1587.0265-.2116.1058.2116.2116.4497.3175.6614.0264.0265.0264.053.0529.0794v.1059c0 .1058 0 .2116.0264.344-.1323-.2647-.2646-.5557-.3968-.8468-.0265-.0529-.0265-.0794-.0265-.1322m-.1323-3.4132c-.0265.1852-.053.3969-.053.5821-.0264.291-.0528.5556-.0793.8202.053-.4762.1323-.979.1852-1.4552.0265.0794 0 .2117 0 .3175-.0529.5292-.1058 1.0848-.1587 1.614l-.0794-.1588c0-.0265-.0265-.0529-.0265-.0529 0-.0265 0-.0794.0265-.1323.0794-.6085.1587-1.2435.2117-1.8256 0 .0794-.0265.1852-.0265.291m-1.0583.8996c-.0265-.1323-.0265-.2646-.053-.3969.2646.5292.5028 1.0584.7673 1.561 0 .0795-.0264.1853-.0264.2647-.2381-.4498-.4763-.9525-.688-1.4288m.6086 1.8521c0 .0529-.0264.1058-.0264.1323-.1588-.344-.3175-.688-.4498-1.0583 0-.0265-.0265-.053-.0265-.0794-.0265-.053 0-.1059-.0265-.1588.1853.3969.344.7938.5292 1.1642m-.8731-1.8786c.0794.1323.1323.291.1852.4234v.1058c-.0794-.1587-.1323-.291-.2117-.4498.053-.0265.0265-.0529.0265-.0794m.1058-.6085c0 .1323.0265.238.0265.344-.0794-.1324-.1323-.2911-.2117-.4499 0-.1058-.0264-.238-.0264-.344.0529.1588.1322.3176.2116.4499m-.291-1.032c0-.1057-.0265-.2116-.0265-.3439.0794.1588.1588.3175.2117.4763 0 .0794.0264.1852.0264.2646-.0793-.1059-.1322-.2646-.2116-.397m.2646.3705c.1587.344.3175.688.4762 1.0583h-.0264c-.0265-.0529-.053-.1058-.1059-.1852-.0794-.1587-.1852-.344-.2646-.5291-.0264-.0265-.0529-.0794-.0529-.1059 0-.0265 0-.0794-.0264-.1323.0264-.0265 0-.0794 0-.1058m.8466 3.2808c.0265.053.053.1323.1059.2117 0 .053-.0265.1058-.0265.1588-.0265-.0794-.053-.1323-.1058-.2117.0264-.053.0264-.1058.0264-.1588m.0794-.344c0-.0264-.0265-.0264-.0265-.0528 0-.0265 0-.1059.0265-.1323 0-.053 0-.1058.0265-.1323.0264.0529.0529.1323.1058.2117 0 .0794-.0265.1852-.0265.2645-.0529-.0529-.0793-.1058-.1058-.1587m-4.3392-8.7048c-.0264 0-.0264-.0529-.0264-.0529 0-.0265-.0265-.0265 0-.0529l.0264.0265c.0265.0794.053.1323.0794.2117l.7144 1.7462c-.2646-.6085-.5292-1.2435-.7938-1.8785m.8732 1.1112c-.1059-.2116-.2117-.4498-.3175-.6879-.0794-.1852-.1852-.3969-.2646-.582 0 0 0-.0266-.0265-.053 0-.0265 0-.0265.0265-.0265.0264.0265.0264.053.0264.0794.291.6086.5821 1.2171.8467 1.8521.3969.8467.7938 1.6933 1.1906 2.5665.0794.1852.1852.3704.2646.5556 0 .0265.0265.0529.053.0794v.0794c0 .0794.0264.1587.0264.2381-.6086-1.3758-1.2171-2.7252-1.8256-4.101m1.9314.8466c.0265.0265.0265.0794.0265.1323 0-.1058-.0265-.2116-.0265-.3175-.0529-.4233-.1058-.8202-.1323-1.2435-.0264-.1323 0-.291.0794-.4233.053-.1059.1852-.1852.3175-.1852.2117 0 .3969.291.4763.4497.0529.1059.0793.2117.1322.344.0265.1058.053.2381.1059.344.1323.4762.2646.9525.3704 1.4552s.2117 1.0054.291 1.5346c.0794.4497.1323.8995.2117 1.3758 0 .0529.0265.1323.0265.1852s0 .0794-.0265.1323c-.0794.635-.1587 1.3229-.2381 1.9579-.291-.6085-.6086-1.27-.8996-1.905-.0265-.0529-.053-.0794-.053-.1323-.0264-.0529-.0264-.1323-.0264-.2117-.0529-.4762-.1323-.979-.1852-1.4552-.0794-.582-.1587-1.1377-.2117-1.7198 0 .1323.0265.2646.053.397.1058.926.2116 1.852.3175 2.8045-.053-.1323-.1323-.2646-.1852-.4233 0-.0265-.0265-.053-.0265-.053v-.1058l-.1588-1.4287c-.1587-.4763-.2116-1.0054-.238-1.5081m-1.3495 3.757c.0265.053.0794.1588.0794.2117.5027 1.217 1.0054 2.4342 1.5346 3.6513.0794.1587.1323.3175.2117.5027 0 .0265.0264.0529.0264.0794 0 .0529 0 .0794.0265.1587-.6086-1.5346-1.2436-3.0162-1.8521-4.5244-.0265-.0529-.0265-.0529-.0265-.0794-.0264 0-.0264-.0265 0 0m.8203 12.118c.0529-.053.1058-.1323.1852-.1852.0529.0265.1058.0265.1323.0529 0 0 0 .0265-.0265.0265-.053.0794-.1323.1323-.2117.2116-.0264-.0265-.0793-.0265-.1323-.0529 0-.0265.053-.0529.053-.0529m-.1323 0l-.0265.0265c0-.0265.0265-.0265.0265-.0265.0529-.0794.1323-.1323.1852-.2116-.0265.0529-.1059.1322-.1852.2116M.0013 343.33s-.0265-.0265-.0265-.053c.0265.0266.0265.053.0265.053m-.0265-.0794c0 .0265 0 0 0 0m-.0264-.0265c0-.0265 0 0 0 0m0-.053c0 .0265 0 0 0 0m-.0265-.0265c0-.0265 0 0 0 0m0 0c0 .0265 0 0 0 0m.4233 3.6248c.2117.4233.3705.8996.5557 1.3494l-.3175-.635c-.1059-.2117-.1852-.4498-.291-.6615l-.5557-1.3494c.2117.4234.3969.8467.6085 1.2965m-.5291.3969c.1058.238.2116.4762.3175.6879.1058.2381.2116.4762.291.7143-.3704-.6085-.7408-1.27-1.0848-1.905-.0529-.1058-.1323-.2116-.1852-.3175-.0529-.1058-.1058-.238-.1587-.344-.3969-.9524-.7938-1.8784-1.1642-2.8574 0-.0265.0265.0265.0265.0265.2116.4233.4233.8731.635 1.2965.238.4497.4498.8995.6614 1.3493.2381.4234.4498.8732.6615 1.3494m-2.196-9.2604c.1322.3175.2645.6614.3968 1.0054.0265.0529.0265.1058.053.1323-.1324-.3969-.2647-.7673-.4234-1.1642h.0265c.3704.8467.7408 1.6669 1.1112 2.54-.053.0264-.1058.053-.1587.0794l-.397-.9525c-.0528-.1058-.0793-.2116-.1322-.3175-.0794-.2116-.1852-.4233-.291-.635-.1059-.2116-.1853-.4233-.1853-.6879zm-.1588.0529c.344.7937.6879 1.5875 1.0319 2.4077 0 .0265.0264.0794.0529.1323v.0265c0 .0265 0 0-.0265.0265-.0264 0-.0264 0-.0264-.0265-.0265-.0265-.0265-.1058-.053-.1323-.291-.8467-.635-1.6404-.979-2.4342m-.635 4.8684c.0265.0265.0265.0529.0265.0529.0794.1587.1853.3175.2382.4762.0793.1852.1587.3969.2381.582-.1588-.3703-.3175-.7407-.5027-1.1112m.344.5821c.2116.3969.4497.8202.6614 1.2171.0265.0794.0794.1323.1058.2117.688 1.6668 1.4023 3.3866 2.1696 5.0006.053.1323.1323.2646.1852.3969 0 0 .0265.0265 0 .0265-.0264 0-.0264-.0265-.0529-.0265-1.0848-2.2225-2.0902-4.5244-3.0692-6.8263m.5557 7.5671c.1058.0529.2381.1058.344.1588l2.0637.9525-.5821.3704c-.0794-.0265-.1323-.053-.2117-.1059-.238-.1058-.4762-.2116-.7408-.3175-.1588-.0794-.3175-.1323-.5027-.2116-.4763-.2117-.979-.4498-1.4288-.688-.1058.0266-.238 0-.344-.0528-.291-.1059-.5555-.2382-.7937-.3705-.0264 0-.0529-.0265-.0529-.0265-.2381-.1322-.4762-.238-.7144-.3704-.0793-.0529-.1852-.0794-.2645-.1323.979.2117 1.9314.4234 2.8575.688.1058.0265.238.0794.3704.1058m2.2225 2.1167c-.0794-.0265-.1588-.053-.2646-.1059-.0794-.0265-.1323-.0529-.2117-.0794.0265 0 .0265 0 .053-.0265.1587.053.291.1323.4233.2117m-4.6038-3.7836c.0265 0 .053.0265.1059.0265.0264.0265.0793.0265.1058.0265.0264 0 .053.0265.053.053.0528.0528.1322.1058.1851.1587-.1852-.0794-.3969-.1852-.582-.2646.0528.0265.1058 0 .1322 0m-1.7991-.2381c.1587.0794.3175.1587.5027.2381.5027.2117.979.4498 1.4816.688-.8202-.1588-1.6404-.3176-2.487-.4763-.053 0-.1059-.0265-.1588-.0265-.0265 0-.053-.0265-.0794-.053l1.7198.1324s-.926-.4234-1.9844-.8732l.2382.0794c.1058.0265.1852.053.2645.0794.1853.053.344.1323.5028.2117m-1.8786-1.4023c.4498.1588.8996.3175 1.323.4763-.053 0-.1059-.0265-.1853-.053l-.5556-.1587h.0265c-.0794-.0265-.1059-.0265-.1588-.0529-.0794 0-.1587-.0265-.2117-.0265-.0529-.0265-.1058-.0529-.1852-.0794-.0264-.0265-.0529-.0265-.0793-.0265-.0794-.0265-.1588-.0794-.2646-.1058-.053-.0265-.1323-.053-.1852-.0794.1587-.0265.344.0529.4762.1058m2.7781 3.228c.1323.0793.3175.1587.4498.2645-.291-.1323-.6085-.2646-.8996-.3969-.8995-.3968-1.8256-.7673-2.7516-1.1641.0529 0 .1058.0265.1852.0265l.635.1323c.1058.0529.2117.1058.344.1323.0793.0265.1852.0265.291.0265.0794 0 .1852 0 .2646.0265l.7143.4762.0794.0265 1.5346.635 1.6669.7673-2.54-1.0319c0 .053.0264.0794.0264.0794m1.0584 2.7781c.0529 0 .1323.0265.1852.053l.5556.1587h-.0265c-.1322-.0265-.238-.053-.3704-.1058-.1323-.0265-.2381-.0794-.344-.1059m.3705.1323c.926.2646 1.8785.5292 2.8046.8202v.0265c-.0265.0265-.1059.0794-.1323.1059-.8996-.344-1.7727-.635-2.6723-.9525m.9525 1.3493c.3175.0794.635.1852.979.2646l-.053.053c-.3175-.106-.635-.2118-.926-.3176m1.5875.7938c-1.1113.8995-2.196 1.7727-3.3073 2.6723.3704-.344.7144-.7144 1.0848-1.0584l.1852-.1852c.053-.0529.1323-.1058.1852-.1852l.7144-.7144c.1852-.1852.3704-.344.5556-.5291.053-.053.1323-.1059.1852-.1588.1323.053.2646.0794.3969.1588.0264-.0265 0-.0265 0 0m.2117-.1852c-.1323-.053-.291-.1059-.4234-.1323 0-.0265.053-.053.053-.0794.1587.0529.3174.0794.4762.1323-.0265.0265-.053.0529-.1058.0794m-.291-2.2755c-1.2436-.3968-2.4872-.7673-3.7307-1.1906 1.6669.5027 3.3337 1.0054 4.9742 1.5346-.0265.0265-.0265.0265-.0794.0265l-.2381-.0794c-.3175-.1058-.635-.2117-.926-.291m.6614 1.4022c0-.0265.0264-.0265.0264-.0265l.1059-.1058.5556.1588c-.0794.0529-.1323.1058-.2117.1587-.1587-.0794-.3175-.1323-.4762-.1852m.2381 1.0848c.053-.053.0794-.0794.1323-.1058.0529.0265.1323.0265.1852.0529-.0265.0529-.0794.0794-.1058.1322-.0794-.0265-.1588-.0529-.2117-.0794m-6.4823 10.0277l1.0319-.873c1.1641-1.0055 2.3019-2.011 3.466-3.0163-.0794.1323-.1852.2646-.291.4233-.0265.0265-.0265.0529-.0265.0529l-.0794.0794c-.3968.344-.8202.688-1.217 1.0319.0529-.053.1323-.0794.1852-.1323-.2646.2117-.5027.4498-.7673.6615-.7938.635-1.614 1.27-2.4077 1.905 0-.053.0529-.1059.1058-.1323m.5027-.291l-1.0319.873-.0264.0265v-.0529c0-.0265.0264-.0265.0264-.0265.0265-.0265.053-.0265.0794-.0529.0265-.0265.053-.0265.0794-.0529.344-.2645.7144-.5556 1.0583-.8466-.0794.0529-.1323.0794-.1852.1323m.1852-.1588c-.0264.0265 0 0 0 0m2.2754-1.6933l-.873.7144c-.397.3175-.7674.635-1.1643.9525.053-.053.1059-.0794.1323-.1059.1588-.1058.291-.2381.4234-.344l.5556-.4762c.1852-.1587.3704-.344.5556-.4762.1852-.1588.3969-.3175.6086-.4498-.053.0265-.1588.1058-.2382.1852m-.0264-.053c0-.0264.0264-.0264.0529-.0528.1323-.1059.2646-.2382.4233-.344.1323-.1058.291-.2381.4234-.344 0 .0266-.053.053-.0794.0795-.2646.2116-.5556.4498-.8202.6614m.7673.2117c.0529-.0794.1058-.1588.1852-.2381.0264-.0264.0264-.053.0529-.0794.0265-.0265.053-.0265.0794-.053.1587-.1322.344-.2645.5027-.3968-.2646.2381-.5292.5027-.8202.7673m.6085-4.7625l-.0794.0794s.0265-.0265.0265-.053l.3175-.3174c.053-.053.1323-.1059.1852-.1852.2381-.2382.4763-.4763.7144-.7409.291-.3175.582-.6085.8731-.926l.1852-.1852c.053-.053.1058-.1323.1852-.1852.0794-.1059.1852-.1852.2646-.2646.0265-.0264.053-.0794.0794-.0794 0 0 .0264 0 .0529.0265-.1588.1852-.344.3704-.5027.5556l.5556-.5556c.053.0265.0794.0265.1323.0529-.1852.2117-.3704.3704-.5556.582 0 .0266-.0265.0266-.0265.053 0 .0265-.0264.0265-.0264.0529l-.0794.0794c-.7938.635-1.561 1.3229-2.3019 2.0108m3.2544-4.154l-.1852.1853c-.0265 0-.0265 0-.053-.0265.0794-.0794.1588-.1323.2382-.1852.0264 0 0 .0265 0 .0265m.0264 1.0583c0 .0265-.0264.0265-.0264.0529a150.787 150.787 0 01-.1058.1058c-.053 0-.0794-.0264-.1323-.0529-.0265 0 0 0 0-.0265.0264-.0529.0793-.0794.1323-.1323.0529 0 .0793.0265.1322.053m-.238-.0795h.0264c-.053.053-.0794.1059-.1323.1588h-.0265c0-.0265.0265-.0265.0265-.0265.053-.053.0794-.1059.1058-.1323m-1.27 4.8948c-.0264.0529-.0794.0794-.1323.1058-.1323.1058-.2646.2117-.3704.3175.0265-.0529.053-.0794.0794-.1323 0-.0265.0264-.0265.0264-.0529.0265-.0265.053-.0529.1059-.0794.0794-.0265.1852-.0794.291-.1587m1.5081-.979l-2.3018 1.8256c.0529-.0794.1058-.1587.1852-.2116.2381-.2117.5027-.4498.7673-.6615.0793-.0794.1852-.1587.291-.2381.4233-.2646.8202-.5556 1.2171-.8202-.0794.0265-.1323.0529-.1588.1058m.2382-5.8208c-.2117-.053-.4234-.1323-.6086-.1852-.0264 0 .0265-.0265.0265-.0265.2117.0529.4233.1323.582.2116.0265-.0265.0265 0 0 0m.0265-1.2964s-.0529-.0265-.0793-.0265c-.1853-.053-.344-.1059-.5292-.1852.1852-.0794.3969-.1852.5556-.2646.053.1058.1058.2381.1588.344 0 .0264-.0265.0264-.053.0528 0 .0265-.0264.053-.0529.0794m.0265 6.3765c.0794-.0794.1323-.1323.2117-.1852.1852-.1588.3968-.3175.6085-.4763l-.1323.1323c.5027-.4233 1.0319-.873 1.5346-1.2964.0794.0265.1323.0529.2117.0794-.7938.582-1.614 1.1641-2.4342 1.7462m2.831-2.1166c-.0793.0794-.1323.1587-.2116.2116-.0794-.0265-.1323-.0529-.2117-.0794.0794-.0794.1852-.1587.2646-.2381.0529.0265.1323.0265.1852.0529 0 .0265-.0265.0265-.0265.0529m-.1323-9.1546c0-.0265-.0264-.0529-.0264-.0794v-.2116c.1852.3704.344.7408.5027 1.0848 0 .1322.0264.2645.0264.3968-.1587-.3968-.344-.7937-.5027-1.1906m1.905 11.43v.3969c-.2116-.3969-.3968-.7938-.6085-1.1906.0265.0265.053.0529.0794.1058.1852.2117.3704.4498.5291.6879m-.582-1.958c.0264.053.0529.1324.0793.1853-.0529-.0794-.1058-.1323-.1587-.2117.0264.0265.0529.0265.0794.0265m-.397-8.89c.053.1059.106.2382.1853.3704v.1323c-.053-.1323-.1058-.2645-.1852-.3968v-.1059m.0794.7938c-.0265-.0265-.053-.0794-.053-.1059v-.1322c0-.1059 0-.2382-.0264-.344.0264.0794.0794.1852.1323.2646.0264.0265.0529.0794.0529.1058v.2382c0 .0264-.053.0528-.0794.0528 0 0 0-.0529-.0264-.0794m.0529 8.9165c.0264 0 .0264.0265.0529.0529 0 .0265.0264.0265.053.0529 0 .0265 0 .0529.0264.0529.0264.0529.0529.1323.0793.1852-.1058-.1058-.1587-.2117-.2116-.344m.5027 2.3813c-.053-.1059-.1588-.3704-.2646-.7144-.0265-.1323-.053-.2381-.0794-.3704.2117.3704.4234.8202.635 1.217.0265.053.053.1059.0794.1853v.4233c-.1323-.291-.291-.6085-.3704-.7408m5.1064 5.1329c.053.0794.1323.1852.1852.2646.1853.2381.3705.4762.5292.7144.0794.1322.1852.238.2381.3968 0 .0265-.0264-.0265-.0264-.0265-.1852-.2116-.3704-.4233-.5292-.635-.1852-.2381-.3175-.5291-.4762-.7937l.0793.0794m-2.4341-9.6044c.291.0794.6085.1587.8996.2381l-.0265.0265c-.291-.0794-.582-.1852-.8731-.2646m.4498 1.4552c-.1323-.0265-.2382-.0794-.3705-.1058-.0529-.1058-.1058-.1852-.1587-.291.1323.0529.2646.0794.3969.1058.0529.1058.1058.1852.1323.291m.0529-1.9314s.0264 0 0 0c-.291-.0794-.5821-.1852-.8731-.2646l-.0794-.1587c.0529 0 .0794.0265.1058.0529.291.1322.5821.238.8467.3704m-.6086-1.4817c-.0793.0794-.1587.1323-.238.2117-.2118-.1059-.4234-.2117-.6615-.291-.0794-.1588-.1323-.3176-.2117-.4499.0264-.0529.0794-.0794.1323-.1058.3969.1587.8202.3175 1.217.4498-.0529.0529-.1322.1058-.238.1852m-.5292 1.1377c-.0794-.0265-.1852-.0529-.2646-.0794l.1323-.1323h.0264c.0265.053.0794.1323.1059.2117m-.344-.344c-.0264.0265-.0529.053-.1058.0794l-.0265.0265c-.0264-.0794-.0529-.1323-.0794-.2117.053.053.1323.0794.2117.1059m1.5081-1.3494c-.4233-.1323-.8466-.291-1.2435-.4233-.0265 0 0-.0265.0265-.0265.0264 0 .0264-.0265.0529-.0265.3968.1587.8202.291 1.217.4498-.0264 0-.0529.0265-.0529.0265m1.5346.4233c.8731.291 2.5136.8731 3.4131 1.1642.0265 0 .053.0265.0794.0265.0265 0 .053 0 .0794.0265-.0265.0265-.0794.0265-.1058 0-.0265 0-.053-.0265-.053-.0265-.8995-.291-2.54-.8732-3.413-1.1907m3.122 1.1907c.0265 0 .0794.0265.1058.0265.0794.0265.1852.0794.291.1058.0265 0 .053 0 .053.0265-.344-.1323-1.4817-.5027-1.7992-.635-1.0318-.3704-2.0373-.7144-3.0691-1.0848 0-.0265.0264-.0265.0529-.0265 1.1641.4498 3.1485 1.1642 4.3656 1.5875m2.7517-7.7787c-.053.0529-.1323.1058-.2117.1587-.5292.3969-1.0319.7938-1.5346 1.1906-1.1641.926-2.2754 1.8786-3.3866 2.8575-.5292.4763-1.0848.926-1.614 1.4023-.0265.0265-.0265.0265-.053.0265-.4233-.1323-.8201-.291-1.2435-.4233 0 0 0-.0265.0265-.0265.053-.0529.1323-.1058.1852-.1588.2117-.1852.4498-.3968.6615-.582.1587-.1323.291-.2646.4498-.397.0793-.0528.1322-.1322.2116-.1851.3704-.3175.7673-.635 1.1377-.926.0794-.053.1588-.1059.2646-.1588 1.6404-.9525 3.3602-1.852 5.1065-2.7781m.6085-.8202c-.582.3175-1.1642.6085-1.7462.926-.0794.0529-.1588.0794-.2382.1323-.5027.2646-1.0054.5292-1.4816.7937.0264-.0264.0529-.0529.1058-.0794.5027-.344 1.0319-.635 1.561-.926.1588-.0794.291-.1588.4498-.2117.1588-.0794.291-.1323.4498-.2116.291-.1588.5821-.291.8996-.4234 0-.0265 0 0 0 0m1.1377-1.905c.053 0 .1059-.0265.1588-.0265a.644.644 0 01.3175 0c.0264 0 .0529 0 .0529.0265h.0794c.0264 0 .0793.053.1058.0794.0794.053.1323.1323.1852.2117.0265.0529.053.0794.053.1323v.1852c-.053.344-.344.5027-.6086.635-.0265 0-.053.0265-.053.0265-.0264 0-.0529.0265-.0793.0265-.0265.0265-.1058.0529-.1058.0529-.0265 0-.053-.0265-.1059-.0265.053-.0265.1323-.053.1588-.0794a3.5336 3.5336 0 00.6085-.4233c.0794-.0794.1323-.2117.1323-.344 0-.1588-.1058-.291-.1852-.3704-.0265-.0265-.053-.0794-.1058-.0794-.053-.0265-.1059-.053-.1588-.053-.1587-.0264-.344 0-.4762.0266-.291.0529-.5821.1323-.8467.2116-.3704.1059-.7144.2382-1.0583.3705.582-.2117 1.27-.4498 1.9314-.5821m-2.9104 1.852l.0794-.0793s-.0265-.0265-.053-.0794c.2117-.1323.4499-.291.688-.397.2381-.1057.5027-.1851.7673-.291.3969-.1322.7937-.2645 1.217-.3968.1059-.0265.1853-.053.2911-.0794.053 0 .1058 0 .1323-.0265v.0265c-.0794.0794-.2117.1323-.3175.1852-.2381.1323-.4763.2381-.7144.344l-.3969.1587-.3968.1587c-.3704.1588-1.0584.4763-1.1113.5292-.2646.1323-.5556.291-.7937.4233.0793-.0794.2116-.1852.344-.291.1058-.0265.1851-.1058.2645-.1852m-7.673 4.8154c.106-.0794.2118-.1852.2911-.2381.397-.344.7673-.6615 1.1642-.979.1058-.0794.1852-.1587.291-.2381.291-.2381.5557-.5027.8467-.7673.7408-.688 1.4817-1.3494 2.249-2.0373.3704-.344.7408-.688 1.1377-1.0054a46.0376 46.0376 0 011.7198-1.4817c.2116-.1587.4233-.3175.635-.4498-.3175.5557-.7938.979-1.27 1.3759-.1059.0794-.1852.1587-.291.238-.344.3176-.7144.6086-1.0849.9261l-.0264.0265c-.1852.1588-.3969.344-.6086.5292-.3704.3175-.7673.635-1.1641.979-.3704.344-.7673.6614-1.1377.979a68.6006 68.6006 0 00-.5821.5026c-.3704.3175-.7673.6615-1.1377.979-.5557.5027-1.1642.9525-1.7463 1.4552-.0264 0-.1058-.0265-.1323-.053v-.0263c0-.0265.053-.0265.053-.053.2645-.2116.5291-.4497.7937-.6614m-.3969 2.54c-.0529-.0265-.1323-.0529-.1852-.0794.0265-.0265.0794-.0529.1058-.0794l.0794.1588m.3969-3.4396c-.291.291-.5556.5556-.8202.8467l-.0265.0265s0 .0265-.0264.0265c0 0-.0265-.0265 0-.0265l.0264-.0265c.5821-.5557 1.1642-1.1377 1.7463-1.7198-.291.2646-.6086.582-.8996.8731m-1.217-1.3227v-.1058c0-.0265.0528-.053.0793-.0794.0794-.0794.1587-.1588.2381-.2117.3175-.291.6615-.582.979-.8731.1058-.1059.2116-.1852.3175-.291.0529-.053.1058-.1059.1587-.1324.2646-.238.5556-.4762.8202-.7143-.4233.4498-.8731.926-1.2964 1.3758-.3175.344-.6615.688-.979 1.0319-.1058.1058-.2117.2381-.3175.344v-.344m.0265 1.5346c0-.0265.0793-.1059.1323-.1323.291-.291.5556-.6086.8466-.8996.1323-.1323.2381-.2646.3704-.3969.1852-.2117.397-.4233.6086-.635.291-.3175.5556-.6085.8466-.8996l.1323-.1323c.3175-.344.6615-.6614 1.0055-1.0054.1587-.1587.344-.3175.5027-.5027a39.8711 39.8711 0 011.5345-1.4552c.0794-.0794.1853-.1587.2646-.2381l.7938-.7144c.1852-.1587.3704-.3175.5556-.4498.1852-.1587.3704-.291.5556-.4498-.979 1.0319-1.9843 2.0373-2.9898 3.0692-.238.2646-.5027.5027-.7408.7673l-.1323.1323c-.0264.0265-.0264.0529-.0529.0794L6.1132 350.5c-.1323.1323-.2646.2381-.3705.3704l-.1058.1058-.0264.0265c-.0794-.1322-.1323-.1587-.1323-.238m.2645 7.1172l.291.4233c-.1057-.0265-.1851-.0529-.291-.1058v-.3175m1.5346 5.9002c0 .0265-.0264-.0264-.0264-.0264-.1059-.2117-.2382-.4498-.344-.6879-.1323-.2381-.2381-.4763-.3704-.7144-.2381-.4762-.5027-.9525-.7408-1.4287 0-.2382-.0265-.5027-.0265-.7409.5292 1.1642 1.0319 2.3813 1.5081 3.5984m.635-1.7992l-.4762-.635c-.4498-.635-.926-1.2435-1.3759-1.8785-.0264-.053-.0793-.1323-.1058-.2117-.0529-.1323-.1058-.2646-.1587-.4233 0-.0265-.0265-.053-.0265-.0794v-.3705c.1588.053.291.1059.4498.1323l1.2965 1.8786c.1058.5291.238 1.0583.3968 1.5875m-.1323-4.2069c-.0264-.0265 0-.0265 0 0 .0794 0 .1852.0265.291.053.0265 0 .0795.0264.0795.0528-.1323-.0265-.2382-.0529-.3705-.1058m1.958 6.5616c-.344-.4233-.688-.873-1.032-1.2964l-.0793-.0794c-.0265-.0265-.0265-.0794-.053-.1323-.1587-.3969-.291-.7938-.4232-1.1906zm-.926-5.08c-.106-.0265-.2382-.0794-.344-.1058l-.2382-.4762c.1323.0265.2382.0794.344.1058l.2381.4762m8.8371.926c.0265-.0264.053-.0264.0794-.0264.0264.0529.0264.1323 0 .2116 0 .053-.0265.1323-.0794.1588-.0265 0-.1058 0-.1588-.0265-.7408-.1852-1.4552-.3969-2.196-.582l-1.7462-.4763c-1.5346-.4234-3.0957-.8732-4.6303-1.2965-.1587-.0529-.3175-.0794-.4762-.1323H8.415c-.0529-.0265-.1058 0-.1058-.0529.1852.053.3704.1058.582.1588.5822.1587 1.1378.3175 1.7199.4498.7673.2116 1.5346.3968 2.3019.6085.7672.1852 1.5345.3969 2.3018.6085l.5557.1588c.291.0794.582.1587.873.2117.106.0265.1853.0529.2911.0794.1852.0529.3704.1322.5556.1852.0265-.0265.0265-.053.0265-.0794 0-.053-.053-.053-.1058-.053.1323-.0263.1852-.0528.2381-.1058m-.2117.053c.0265 0 .0265 0 .0265.0264 0-.0265-.0265-.0265-.0265-.0265m-1.1906-.3704c.0794.0265.1058.0265.1588.053.344.1057.6879.2116 1.0318.3174-.0529 0-.1058 0-.1852-.0265-.0264 0-.0793-.0265-.1058-.0529-.2646-.1058-.5556-.1852-.8467-.2646.0794.0265.1588.053.2117.0794-.0794 0-.1323-.0264-.2117-.0529-.5027-.1587-1.0054-.3175-1.4816-.4498-.5557-.1852-1.1378-.344-1.6934-.5291 1.0319.291 2.0638.6085 3.1221.926m-5.8208-1.7462c.0794.0265.1587.0529.2116.0794.3705.1323.7409.2645 1.1113.3704 1.1906.3704 2.4077.7408 3.5983 1.1377-2.3548-.635-4.7096-1.2965-7.0644-1.958-.0264-.0264-.0264-.0528-.0264-.0793-.0265-.0794-.0794-.1323-.1058-.2117.3175.0794.6085.1852.926.2646.4233.1323.8731.2381 1.3494.3969m1.0583-1.5346c0-.053-.0265-.1059-.053-.1588 1.6934-.0529 4.5774-.1323 5.1595-.0529.582.053-3.0957.1588-5.1065.2117" id="path12" fill="#5f259f" stroke-width=".2646"/><path class="st2" d="M30.6136 350.3678c1.7462.5292 2.9104 1.3494 2.9104 3.175 0 2.1696-2.0108 3.5983-4.154 3.5983-1.852 0-3.5718-.7672-4.6037-2.0902l1.3229-1.561c1.0054 1.1906 2.0902 1.7198 3.3338 1.7198 1.0054 0 1.9314-.4763 1.9314-1.4288 0-.7408-.3969-1.1377-1.3494-1.4023l-1.9314-.582c-1.614-.4763-2.7252-1.2965-2.7252-3.0428 0-1.852 1.6668-3.413 3.9687-3.413 1.6934 0 3.0956.635 4.0217 1.6139l-1.2436 1.6404c-.7937-.8202-1.7197-1.323-2.8045-1.323-1.032 0-1.7463.5557-1.7463 1.323 0 .6615.4498 1.0054 1.2436 1.2435z" id="path14" fill="#5f259f" stroke-width=".2646"/><path class="st2" d="M36.8577 350.4472h.0265c.3704-.635 1.217-1.1906 2.2754-1.1906 2.0109 0 3.5984 1.614 3.5984 3.9422 0 2.302-1.5875 3.9423-3.5984 3.9423-1.0583 0-1.9314-.582-2.2754-1.217h-.0265v3.9952h-2.0902v-10.4775h2.0902zm1.905 4.8154c1.1642 0 1.958-.979 1.958-2.0902 0-1.0848-.7938-2.0902-1.958-2.0902-1.1641 0-1.9579.979-1.9579 2.0902 0 1.1112.7673 2.0902 1.958 2.0902" id="path16" fill="#5f259f" stroke-width=".2646"/><path class="st2" d="M46.6738 352.4316l1.7727-.1323c0-.7673-.5292-1.2436-1.5875-1.2436-.7938 0-1.614.3704-2.1696.7673l-.7144-1.5346c.6615-.4762 1.9315-1.0318 3.2544-1.0318 2.0902 0 3.2544 1.2435 3.2544 3.1485v4.5244H48.473v-.9525h-.0265c-.2381.4762-1.1113 1.1377-2.196 1.1377-1.4817 0-2.6194-.8202-2.6194-2.3019 0-1.4817 1.4816-2.249 3.0427-2.3812m1.7727 1.2435l-1.4023.1323c-.8996.0794-1.4817.3175-1.4817.926 0 .5292.5292.8202 1.1377.8202.9525 0 1.7463-.6085 1.7463-1.6668z" id="path18" fill="#5f259f" stroke-width=".2646"/><path class="st2" d="M54.1615 353.1195v3.81h-2.0902v-7.4877h2.0902v1.27h.0265c.291-.7938 1.0583-1.4023 1.9314-1.4023.1588 0 .3704.0265.5027.0529v2.1696c-.2116-.0794-.5027-.1323-.8202-.1323-.979-.0265-1.6404.6614-1.6404 1.7198" id="path20" fill="#5f259f" stroke-width=".2646"/><path class="st2" id="polygon22" transform="translate(-14.4185 336.874) scale(.26458)" fill="#5f259f" d="M281.1 75.8h-7.9V32.7h7.9v27.2l11-12.4h9.2l-11.8 13 12.2 15.3h-9.6l-11-14.4z"/><path id="path24" d="M70.2217 352.8813h2.9633v-.6879h-1.9314l1.852-1.9843v-.7673h-2.778v.6879h1.7726l-1.852 1.9844v.7672zm-3.6777 0h.8467v-1.8785c0-.1058.0264-.2381.0529-.344.0264-.1058.0794-.2116.1587-.291.053-.0794.1588-.1587.2382-.2117.1058-.0529.2116-.0794.3704-.0794.1323 0 .2381.0265.344.0794.0793.053.1587.1323.1851.2117.053.0794.0794.1852.1059.291.0264.1059.0264.2117.0264.3176v1.905h.8467v-2.1432c0-.1852-.0265-.344-.0794-.5027-.0529-.1587-.1323-.3175-.238-.4498-.106-.1323-.2382-.2381-.397-.3175-.1587-.0794-.344-.1058-.582-.1058-.2646 0-.4763.0529-.6615.1852-.1852.1323-.3175.291-.3969.4498h-.0264v-.5556h-.7938z" class="st2" fill="#5f259f" stroke-width=".2646"/></g></g><style type="text/css" id="style10">.st2{fill:#5f259f}</style></svg>